<mxfile host="app.diagrams.net" modified="2024-07-01T09:02:24.308Z" agent="Mozilla/5.0 (Windows NT 10.0; Win64; x64) AppleWebKit/537.36 (KHTML, like Gecko) Chrome/125.0.0.0 Safari/537.36" etag="jJoFCmEt4_cM1OCXFYFw" version="24.6.4" type="github">
  <diagram name="Page-1" id="FL1dpMUzVQ1ufFgPg9Rz">
    <mxGraphModel dx="303" dy="1414" grid="1" gridSize="10" guides="1" tooltips="1" connect="1" arrows="1" fold="1" page="1" pageScale="1" pageWidth="850" pageHeight="1100" math="0" shadow="0">
      <root>
        <mxCell id="0" />
        <mxCell id="1" parent="0" />
        <mxCell id="Lj5jiR5ULHrEoqdRoK43-52" value="" style="rounded=0;whiteSpace=wrap;html=1;" vertex="1" parent="1">
          <mxGeometry x="1115" y="220" width="375" height="240" as="geometry" />
        </mxCell>
        <mxCell id="Lj5jiR5ULHrEoqdRoK43-1" value="&lt;div&gt;&lt;b&gt;Deal Stages&lt;/b&gt;&lt;/div&gt;&lt;div&gt;&lt;br&gt;&lt;/div&gt;&lt;table style=&quot;table-layout: fixed; font-size: 10pt; font-family: Arial; width: 0px; border-collapse: collapse; border: none;&quot; data-sheets-root=&quot;1&quot; border=&quot;1&quot; dir=&quot;ltr&quot; cellpadding=&quot;0&quot; cellspacing=&quot;0&quot; xmlns=&quot;http://www.w3.org/1999/xhtml&quot;&gt;&lt;colgroup&gt;&lt;col width=&quot;272&quot;&gt;&lt;/colgroup&gt;&lt;tbody&gt;&lt;tr style=&quot;height: 21px;&quot;&gt;&lt;td style=&quot;border: 1px solid rgb(204, 204, 204); overflow: hidden; padding: 2px 3px; vertical-align: bottom; font-size: 12pt; overflow-wrap: break-word;&quot; data-sheets-value=&quot;{&amp;quot;1&amp;quot;:2,&amp;quot;2&amp;quot;:&amp;quot;Pending Renewal&amp;quot;}&quot;&gt;Pending Renewal&lt;/td&gt;&lt;/tr&gt;&lt;tr style=&quot;height: 21px;&quot;&gt;&lt;td style=&quot;border: 1px solid rgb(204, 204, 204); overflow: hidden; padding: 2px 3px; vertical-align: bottom; font-size: 12pt;&quot; data-sheets-value=&quot;{&amp;quot;1&amp;quot;:2,&amp;quot;2&amp;quot;:&amp;quot;3rd Month Pulse check&amp;quot;}&quot;&gt;3rd Month Pulse check&lt;/td&gt;&lt;/tr&gt;&lt;tr style=&quot;height: 21px;&quot;&gt;&lt;td style=&quot;border: 1px solid rgb(204, 204, 204); overflow: hidden; padding: 2px 3px; vertical-align: bottom; font-size: 12pt;&quot; data-sheets-value=&quot;{&amp;quot;1&amp;quot;:2,&amp;quot;2&amp;quot;:&amp;quot;6th Month Pulse check&amp;quot;}&quot;&gt;6th Month Pulse check&lt;/td&gt;&lt;/tr&gt;&lt;tr style=&quot;height: 23px;&quot;&gt;&lt;td style=&quot;border: 1px solid rgb(204, 204, 204); overflow: hidden; padding: 2px 3px; vertical-align: bottom; font-size: 12pt;&quot; data-sheets-value=&quot;{&amp;quot;1&amp;quot;:2,&amp;quot;2&amp;quot;:&amp;quot;9th Month Pulse check&amp;quot;}&quot;&gt;9th Month Pulse check&lt;/td&gt;&lt;/tr&gt;&lt;tr style=&quot;height: 21px;&quot;&gt;&lt;td style=&quot;border: 1px solid rgb(204, 204, 204); overflow: hidden; padding: 2px 3px; vertical-align: bottom; font-size: 12pt;&quot; data-sheets-value=&quot;{&amp;quot;1&amp;quot;:2,&amp;quot;2&amp;quot;:&amp;quot;12th Month Pulse check&amp;quot;}&quot;&gt;12th Month Pulse check&lt;/td&gt;&lt;/tr&gt;&lt;tr style=&quot;height: 21px;&quot;&gt;&lt;td style=&quot;border: 1px solid rgb(204, 204, 204); overflow: hidden; padding: 2px 3px; vertical-align: top; font-size: 12pt;&quot; data-sheets-value=&quot;{&amp;quot;1&amp;quot;:2,&amp;quot;2&amp;quot;:&amp;quot;Contract Confirmation&amp;quot;}&quot;&gt;Contract Confirmation&lt;/td&gt;&lt;/tr&gt;&lt;tr style=&quot;height: 21px;&quot;&gt;&lt;td style=&quot;border: 1px solid rgb(204, 204, 204); overflow: hidden; padding: 2px 3px; vertical-align: bottom; font-size: 12pt;&quot; data-sheets-value=&quot;{&amp;quot;1&amp;quot;:2,&amp;quot;2&amp;quot;:&amp;quot;Contract Signed&amp;quot;}&quot;&gt;Contract Signed&lt;/td&gt;&lt;/tr&gt;&lt;tr style=&quot;height: 21px;&quot;&gt;&lt;td style=&quot;border: 1px solid rgb(204, 204, 204); overflow: hidden; padding: 2px 3px; vertical-align: bottom; font-size: 12pt;&quot; data-sheets-value=&quot;{&amp;quot;1&amp;quot;:2,&amp;quot;2&amp;quot;:&amp;quot;Accreditation Renewals&amp;quot;}&quot;&gt;Accreditation Renewals&lt;/td&gt;&lt;/tr&gt;&lt;tr style=&quot;height: 21px;&quot;&gt;&lt;td style=&quot;border: 1px solid rgb(204, 204, 204); overflow: hidden; padding: 2px 3px; vertical-align: bottom; font-size: 12pt;&quot; data-sheets-value=&quot;{&amp;quot;1&amp;quot;:2,&amp;quot;2&amp;quot;:&amp;quot;Closed Won Pending Payment&amp;quot;}&quot;&gt;Closed Won Pending Payment&lt;/td&gt;&lt;/tr&gt;&lt;tr style=&quot;height: 21px;&quot;&gt;&lt;td style=&quot;border: 1px solid rgb(204, 204, 204); overflow: hidden; padding: 2px 3px; vertical-align: bottom; font-size: 12pt; overflow-wrap: break-word;&quot; data-sheets-value=&quot;{&amp;quot;1&amp;quot;:2,&amp;quot;2&amp;quot;:&amp;quot;Closed Won Partial Payment&amp;quot;}&quot;&gt;Closed Won Partial Payment&lt;/td&gt;&lt;/tr&gt;&lt;tr style=&quot;height: 21px;&quot;&gt;&lt;td style=&quot;border: 1px solid rgb(204, 204, 204); overflow: hidden; padding: 2px 3px; vertical-align: bottom; font-size: 12pt;&quot; data-sheets-value=&quot;{&amp;quot;1&amp;quot;:2,&amp;quot;2&amp;quot;:&amp;quot;Closed Won&amp;quot;}&quot;&gt;Closed Won&lt;/td&gt;&lt;/tr&gt;&lt;tr style=&quot;height: 21px;&quot;&gt;&lt;td style=&quot;border: 1px solid rgb(204, 204, 204); overflow: hidden; padding: 2px 3px; vertical-align: bottom; font-size: 12pt;&quot; data-sheets-value=&quot;{&amp;quot;1&amp;quot;:2,&amp;quot;2&amp;quot;:&amp;quot;Closed For Future Date&amp;quot;}&quot;&gt;Closed For Future Date&lt;/td&gt;&lt;/tr&gt;&lt;tr style=&quot;height: 21px;&quot;&gt;&lt;td style=&quot;border: 1px solid rgb(204, 204, 204); overflow: hidden; padding: 2px 3px; vertical-align: bottom; font-size: 12pt;&quot; data-sheets-value=&quot;{&amp;quot;1&amp;quot;:2,&amp;quot;2&amp;quot;:&amp;quot;Closed Lost&amp;quot;}&quot;&gt;Closed Lost&lt;/td&gt;&lt;/tr&gt;&lt;/tbody&gt;&lt;/table&gt;" style="rounded=0;whiteSpace=wrap;html=1;align=left;" vertex="1" parent="1">
          <mxGeometry x="550" y="160" width="300" height="370" as="geometry" />
        </mxCell>
        <mxCell id="Lj5jiR5ULHrEoqdRoK43-2" value="&lt;h1 style=&quot;margin-top: 0px;&quot;&gt;CS Sales pipeline&lt;/h1&gt;&lt;p&gt;For Re-topup or any sales related&amp;nbsp;&lt;/p&gt;" style="text;html=1;whiteSpace=wrap;overflow=hidden;rounded=0;" vertex="1" parent="1">
          <mxGeometry x="120" y="70" width="250" height="120" as="geometry" />
        </mxCell>
        <mxCell id="Lj5jiR5ULHrEoqdRoK43-3" value="&lt;h1 style=&quot;margin-top: 0px;&quot;&gt;STIC Renewal&lt;/h1&gt;&lt;h1 style=&quot;margin-top: 0px;&quot;&gt;&lt;p style=&quot;font-size: 12px; font-weight: 400;&quot;&gt;For Activity tracking in Pulse checks&lt;/p&gt;&lt;/h1&gt;" style="text;whiteSpace=wrap;html=1;" vertex="1" parent="1">
          <mxGeometry x="550" y="70" width="230" height="70" as="geometry" />
        </mxCell>
        <mxCell id="Lj5jiR5ULHrEoqdRoK43-5" value="&lt;div&gt;&lt;b&gt;Deal Stages&lt;/b&gt;&lt;/div&gt;&lt;div&gt;&lt;br&gt;&lt;/div&gt;&lt;table style=&quot;table-layout: fixed; font-size: 10pt; font-family: Arial; width: 0px; border-collapse: collapse; border: none;&quot; data-sheets-root=&quot;1&quot; border=&quot;1&quot; dir=&quot;ltr&quot; cellpadding=&quot;0&quot; cellspacing=&quot;0&quot; xmlns=&quot;http://www.w3.org/1999/xhtml&quot;&gt;&lt;colgroup&gt;&lt;col width=&quot;272&quot;&gt;&lt;/colgroup&gt;&lt;tbody&gt;&lt;tr style=&quot;height: 21px;&quot;&gt;&lt;td style=&quot;border: 1px solid rgb(204, 204, 204); overflow: hidden; padding: 2px 3px; vertical-align: bottom; font-size: 12pt; overflow-wrap: break-word;&quot; data-sheets-value=&quot;{&amp;quot;1&amp;quot;:2,&amp;quot;2&amp;quot;:&amp;quot;Pending Renewal&amp;quot;}&quot;&gt;PO/CE Received&lt;/td&gt;&lt;/tr&gt;&lt;tr style=&quot;height: 21px;&quot;&gt;&lt;td style=&quot;border: 1px solid rgb(204, 204, 204); overflow: hidden; padding: 2px 3px; vertical-align: bottom; font-size: 12pt;&quot; data-sheets-value=&quot;{&amp;quot;1&amp;quot;:2,&amp;quot;2&amp;quot;:&amp;quot;3rd Month Pulse check&amp;quot;}&quot;&gt;SOA/BS/SI Creation&lt;/td&gt;&lt;/tr&gt;&lt;tr style=&quot;height: 21px;&quot;&gt;&lt;td style=&quot;border: 1px solid rgb(204, 204, 204); overflow: hidden; padding: 2px 3px; vertical-align: bottom;&quot; data-sheets-value=&quot;{&amp;quot;1&amp;quot;:2,&amp;quot;2&amp;quot;:&amp;quot;6th Month Pulse check&amp;quot;}&quot;&gt;&lt;span style=&quot;font-size: 16px;&quot;&gt;Closed Won Pending Payment&lt;/span&gt;&lt;br&gt;&lt;/td&gt;&lt;/tr&gt;&lt;tr style=&quot;height: 21px;&quot;&gt;&lt;td style=&quot;border: 1px solid rgb(204, 204, 204); overflow: hidden; padding: 2px 3px; vertical-align: bottom; font-size: 12pt; overflow-wrap: break-word;&quot; data-sheets-value=&quot;{&amp;quot;1&amp;quot;:2,&amp;quot;2&amp;quot;:&amp;quot;Closed Won Partial Payment&amp;quot;}&quot;&gt;Closed Won Partial Payment&lt;/td&gt;&lt;/tr&gt;&lt;tr style=&quot;height: 21px;&quot;&gt;&lt;td style=&quot;border: 1px solid rgb(204, 204, 204); overflow: hidden; padding: 2px 3px; vertical-align: bottom; font-size: 12pt;&quot; data-sheets-value=&quot;{&amp;quot;1&amp;quot;:2,&amp;quot;2&amp;quot;:&amp;quot;Closed Won&amp;quot;}&quot;&gt;Closed Won&lt;/td&gt;&lt;/tr&gt;&lt;tr style=&quot;height: 21px;&quot;&gt;&lt;td style=&quot;border: 1px solid rgb(204, 204, 204); overflow: hidden; padding: 2px 3px; vertical-align: bottom; font-size: 12pt;&quot; data-sheets-value=&quot;{&amp;quot;1&amp;quot;:2,&amp;quot;2&amp;quot;:&amp;quot;Closed For Future Date&amp;quot;}&quot;&gt;Closed For Future Date&lt;/td&gt;&lt;/tr&gt;&lt;tr style=&quot;height: 21px;&quot;&gt;&lt;td style=&quot;border: 1px solid rgb(204, 204, 204); overflow: hidden; padding: 2px 3px; vertical-align: bottom; font-size: 12pt;&quot; data-sheets-value=&quot;{&amp;quot;1&amp;quot;:2,&amp;quot;2&amp;quot;:&amp;quot;Closed Lost&amp;quot;}&quot;&gt;Closed Lost&lt;/td&gt;&lt;/tr&gt;&lt;/tbody&gt;&lt;/table&gt;" style="rounded=0;whiteSpace=wrap;html=1;align=left;" vertex="1" parent="1">
          <mxGeometry x="120" y="160" width="300" height="220" as="geometry" />
        </mxCell>
        <mxCell id="Lj5jiR5ULHrEoqdRoK43-6" value="&lt;b&gt;&lt;font style=&quot;font-size: 72px;&quot;&gt;PIPELINES&lt;/font&gt;&lt;/b&gt;" style="text;html=1;align=center;verticalAlign=middle;whiteSpace=wrap;rounded=0;" vertex="1" parent="1">
          <mxGeometry x="270" width="60" height="30" as="geometry" />
        </mxCell>
        <mxCell id="Lj5jiR5ULHrEoqdRoK43-7" value="&lt;b&gt;&lt;font style=&quot;font-size: 72px;&quot;&gt;PROPERTIES&lt;/font&gt;&lt;/b&gt;" style="text;html=1;align=center;verticalAlign=middle;whiteSpace=wrap;rounded=0;" vertex="1" parent="1">
          <mxGeometry x="1120" width="60" height="30" as="geometry" />
        </mxCell>
        <mxCell id="Lj5jiR5ULHrEoqdRoK43-10" value="&lt;font style=&quot;font-size: 18px;&quot;&gt;Deal Name&lt;/font&gt;" style="rounded=0;whiteSpace=wrap;html=1;" vertex="1" parent="1">
          <mxGeometry x="930" y="130" width="120" height="60" as="geometry" />
        </mxCell>
        <mxCell id="Lj5jiR5ULHrEoqdRoK43-11" value="&lt;h1 style=&quot;margin-top: 0px;&quot;&gt;CS Sales pipeline&lt;/h1&gt;&lt;p&gt;For Re-topup or any sales related&amp;nbsp;&lt;/p&gt;" style="text;html=1;whiteSpace=wrap;overflow=hidden;rounded=0;" vertex="1" parent="1">
          <mxGeometry x="920" y="50" width="250" height="80" as="geometry" />
        </mxCell>
        <mxCell id="Lj5jiR5ULHrEoqdRoK43-12" value="Deal Stage" style="rounded=0;whiteSpace=wrap;html=1;" vertex="1" parent="1">
          <mxGeometry x="930" y="290" width="120" height="60" as="geometry" />
        </mxCell>
        <mxCell id="Lj5jiR5ULHrEoqdRoK43-13" value="Pipeline" style="rounded=0;whiteSpace=wrap;html=1;" vertex="1" parent="1">
          <mxGeometry x="930" y="360" width="120" height="60" as="geometry" />
        </mxCell>
        <mxCell id="Lj5jiR5ULHrEoqdRoK43-14" value="Amount" style="rounded=0;whiteSpace=wrap;html=1;" vertex="1" parent="1">
          <mxGeometry x="930" y="430" width="120" height="60" as="geometry" />
        </mxCell>
        <mxCell id="Lj5jiR5ULHrEoqdRoK43-15" value="Close date" style="rounded=0;whiteSpace=wrap;html=1;" vertex="1" parent="1">
          <mxGeometry x="1560" y="130" width="120" height="60" as="geometry" />
        </mxCell>
        <mxCell id="Lj5jiR5ULHrEoqdRoK43-29" value="" style="edgeStyle=orthogonalEdgeStyle;rounded=0;orthogonalLoop=1;jettySize=auto;html=1;" edge="1" parent="1" source="Lj5jiR5ULHrEoqdRoK43-16" target="Lj5jiR5ULHrEoqdRoK43-28">
          <mxGeometry relative="1" as="geometry" />
        </mxCell>
        <mxCell id="Lj5jiR5ULHrEoqdRoK43-30" value="" style="edgeStyle=orthogonalEdgeStyle;rounded=0;orthogonalLoop=1;jettySize=auto;html=1;" edge="1" parent="1" source="Lj5jiR5ULHrEoqdRoK43-16" target="Lj5jiR5ULHrEoqdRoK43-28">
          <mxGeometry relative="1" as="geometry" />
        </mxCell>
        <mxCell id="Lj5jiR5ULHrEoqdRoK43-39" style="edgeStyle=orthogonalEdgeStyle;rounded=0;orthogonalLoop=1;jettySize=auto;html=1;entryX=0;entryY=0.5;entryDx=0;entryDy=0;" edge="1" parent="1" source="Lj5jiR5ULHrEoqdRoK43-16" target="Lj5jiR5ULHrEoqdRoK43-32">
          <mxGeometry relative="1" as="geometry" />
        </mxCell>
        <mxCell id="Lj5jiR5ULHrEoqdRoK43-40" style="edgeStyle=orthogonalEdgeStyle;rounded=0;orthogonalLoop=1;jettySize=auto;html=1;entryX=0;entryY=0.5;entryDx=0;entryDy=0;" edge="1" parent="1" source="Lj5jiR5ULHrEoqdRoK43-16" target="Lj5jiR5ULHrEoqdRoK43-33">
          <mxGeometry relative="1" as="geometry" />
        </mxCell>
        <mxCell id="Lj5jiR5ULHrEoqdRoK43-41" style="edgeStyle=orthogonalEdgeStyle;rounded=0;orthogonalLoop=1;jettySize=auto;html=1;entryX=0;entryY=0.5;entryDx=0;entryDy=0;" edge="1" parent="1" source="Lj5jiR5ULHrEoqdRoK43-16" target="Lj5jiR5ULHrEoqdRoK43-34">
          <mxGeometry relative="1" as="geometry" />
        </mxCell>
        <mxCell id="Lj5jiR5ULHrEoqdRoK43-42" style="edgeStyle=orthogonalEdgeStyle;rounded=0;orthogonalLoop=1;jettySize=auto;html=1;entryX=0;entryY=0.5;entryDx=0;entryDy=0;" edge="1" parent="1" source="Lj5jiR5ULHrEoqdRoK43-16" target="Lj5jiR5ULHrEoqdRoK43-35">
          <mxGeometry relative="1" as="geometry" />
        </mxCell>
        <mxCell id="Lj5jiR5ULHrEoqdRoK43-43" style="edgeStyle=orthogonalEdgeStyle;rounded=0;orthogonalLoop=1;jettySize=auto;html=1;entryX=0;entryY=0.5;entryDx=0;entryDy=0;" edge="1" parent="1" source="Lj5jiR5ULHrEoqdRoK43-16" target="Lj5jiR5ULHrEoqdRoK43-36">
          <mxGeometry relative="1" as="geometry" />
        </mxCell>
        <mxCell id="Lj5jiR5ULHrEoqdRoK43-44" style="edgeStyle=orthogonalEdgeStyle;rounded=0;orthogonalLoop=1;jettySize=auto;html=1;entryX=0;entryY=0.5;entryDx=0;entryDy=0;" edge="1" parent="1" source="Lj5jiR5ULHrEoqdRoK43-16" target="Lj5jiR5ULHrEoqdRoK43-37">
          <mxGeometry relative="1" as="geometry" />
        </mxCell>
        <mxCell id="Lj5jiR5ULHrEoqdRoK43-45" style="edgeStyle=orthogonalEdgeStyle;rounded=0;orthogonalLoop=1;jettySize=auto;html=1;entryX=0;entryY=0.5;entryDx=0;entryDy=0;" edge="1" parent="1" source="Lj5jiR5ULHrEoqdRoK43-16" target="Lj5jiR5ULHrEoqdRoK43-38">
          <mxGeometry relative="1" as="geometry" />
        </mxCell>
        <mxCell id="Lj5jiR5ULHrEoqdRoK43-16" value="STIC Deal type" style="rounded=0;whiteSpace=wrap;html=1;" vertex="1" parent="1">
          <mxGeometry x="930" y="500" width="120" height="60" as="geometry" />
        </mxCell>
        <mxCell id="Lj5jiR5ULHrEoqdRoK43-47" style="edgeStyle=orthogonalEdgeStyle;rounded=0;orthogonalLoop=1;jettySize=auto;html=1;" edge="1" parent="1" source="Lj5jiR5ULHrEoqdRoK43-17">
          <mxGeometry relative="1" as="geometry">
            <mxPoint x="1110" y="240" as="targetPoint" />
          </mxGeometry>
        </mxCell>
        <mxCell id="Lj5jiR5ULHrEoqdRoK43-17" value="STIC Product" style="rounded=0;whiteSpace=wrap;html=1;" vertex="1" parent="1">
          <mxGeometry x="930" y="210" width="120" height="60" as="geometry" />
        </mxCell>
        <mxCell id="Lj5jiR5ULHrEoqdRoK43-18" value="STIC Contract Start Date" style="rounded=0;whiteSpace=wrap;html=1;" vertex="1" parent="1">
          <mxGeometry x="1560" y="200" width="120" height="60" as="geometry" />
        </mxCell>
        <mxCell id="Lj5jiR5ULHrEoqdRoK43-19" value="STIC Contract End Date" style="rounded=0;whiteSpace=wrap;html=1;" vertex="1" parent="1">
          <mxGeometry x="1560" y="272" width="120" height="60" as="geometry" />
        </mxCell>
        <mxCell id="Lj5jiR5ULHrEoqdRoK43-20" value="Onbording Date (Option 1)" style="rounded=0;whiteSpace=wrap;html=1;" vertex="1" parent="1">
          <mxGeometry x="1560" y="347.5" width="120" height="60" as="geometry" />
        </mxCell>
        <mxCell id="Lj5jiR5ULHrEoqdRoK43-21" value="Onbording Date (Option 2)" style="rounded=0;whiteSpace=wrap;html=1;" vertex="1" parent="1">
          <mxGeometry x="1560" y="416" width="120" height="60" as="geometry" />
        </mxCell>
        <mxCell id="Lj5jiR5ULHrEoqdRoK43-22" value="Payment Terms" style="rounded=0;whiteSpace=wrap;html=1;" vertex="1" parent="1">
          <mxGeometry x="930" y="580" width="120" height="60" as="geometry" />
        </mxCell>
        <mxCell id="Lj5jiR5ULHrEoqdRoK43-23" value="STIC Renewal Level of Interest" style="rounded=0;whiteSpace=wrap;html=1;" vertex="1" parent="1">
          <mxGeometry x="930" y="655" width="120" height="60" as="geometry" />
        </mxCell>
        <mxCell id="Lj5jiR5ULHrEoqdRoK43-28" value="New Deal" style="whiteSpace=wrap;html=1;rounded=0;" vertex="1" parent="1">
          <mxGeometry x="1140" y="515" width="60" height="30" as="geometry" />
        </mxCell>
        <mxCell id="Lj5jiR5ULHrEoqdRoK43-32" value="Renewal" style="whiteSpace=wrap;html=1;rounded=0;" vertex="1" parent="1">
          <mxGeometry x="1140" y="550" width="60" height="30" as="geometry" />
        </mxCell>
        <mxCell id="Lj5jiR5ULHrEoqdRoK43-33" value="Retop-up" style="whiteSpace=wrap;html=1;rounded=0;" vertex="1" parent="1">
          <mxGeometry x="1140" y="590" width="60" height="30" as="geometry" />
        </mxCell>
        <mxCell id="Lj5jiR5ULHrEoqdRoK43-34" value="Upsell (add on)" style="whiteSpace=wrap;html=1;rounded=0;" vertex="1" parent="1">
          <mxGeometry x="1140" y="630" width="60" height="30" as="geometry" />
        </mxCell>
        <mxCell id="Lj5jiR5ULHrEoqdRoK43-35" value="Cross Sell (departmental)" style="whiteSpace=wrap;html=1;rounded=0;" vertex="1" parent="1">
          <mxGeometry x="1140" y="670" width="80" height="30" as="geometry" />
        </mxCell>
        <mxCell id="Lj5jiR5ULHrEoqdRoK43-36" value="Merchant" style="whiteSpace=wrap;html=1;rounded=0;" vertex="1" parent="1">
          <mxGeometry x="1140" y="710" width="60" height="30" as="geometry" />
        </mxCell>
        <mxCell id="Lj5jiR5ULHrEoqdRoK43-37" value="TCV Top-up&amp;nbsp;" style="whiteSpace=wrap;html=1;rounded=0;" vertex="1" parent="1">
          <mxGeometry x="1140" y="750" width="70" height="30" as="geometry" />
        </mxCell>
        <mxCell id="Lj5jiR5ULHrEoqdRoK43-38" value="TCV Retop-up" style="whiteSpace=wrap;html=1;rounded=0;" vertex="1" parent="1">
          <mxGeometry x="1140" y="790" width="80" height="30" as="geometry" />
        </mxCell>
        <mxCell id="Lj5jiR5ULHrEoqdRoK43-46" value="BizTreats Web" style="whiteSpace=wrap;html=1;rounded=0;" vertex="1" parent="1">
          <mxGeometry x="1130" y="230" width="100" height="30" as="geometry" />
        </mxCell>
        <mxCell id="Lj5jiR5ULHrEoqdRoK43-48" value="Biz API Standard (pre-paid)" style="whiteSpace=wrap;html=1;rounded=0;" vertex="1" parent="1">
          <mxGeometry x="1130" y="272" width="120" height="40" as="geometry" />
        </mxCell>
        <mxCell id="Lj5jiR5ULHrEoqdRoK43-49" value="Biz API Non-Standard (post-paid)" style="whiteSpace=wrap;html=1;rounded=0;" vertex="1" parent="1">
          <mxGeometry x="1130" y="325" width="190" height="35" as="geometry" />
        </mxCell>
        <mxCell id="Lj5jiR5ULHrEoqdRoK43-53" value="BizGames" style="whiteSpace=wrap;html=1;rounded=0;" vertex="1" parent="1">
          <mxGeometry x="1240" y="230" width="70" height="30" as="geometry" />
        </mxCell>
        <mxCell id="Lj5jiR5ULHrEoqdRoK43-54" value="BizRewards" style="whiteSpace=wrap;html=1;rounded=0;" vertex="1" parent="1">
          <mxGeometry x="1320" y="230" width="77.5" height="30" as="geometry" />
        </mxCell>
        <mxCell id="Lj5jiR5ULHrEoqdRoK43-55" value="AnyonePay" style="whiteSpace=wrap;html=1;rounded=0;" vertex="1" parent="1">
          <mxGeometry x="1410" y="230" width="70" height="30" as="geometry" />
        </mxCell>
        <mxCell id="Lj5jiR5ULHrEoqdRoK43-56" value="Pin via API standard" style="whiteSpace=wrap;html=1;rounded=0;" vertex="1" parent="1">
          <mxGeometry x="1260" y="270" width="90" height="45" as="geometry" />
        </mxCell>
        <mxCell id="Lj5jiR5ULHrEoqdRoK43-57" value="Pin via API non-standard" style="whiteSpace=wrap;html=1;rounded=0;" vertex="1" parent="1">
          <mxGeometry x="1360" y="270" width="120" height="45" as="geometry" />
        </mxCell>
        <mxCell id="Lj5jiR5ULHrEoqdRoK43-58" value="CODE BANKING" style="whiteSpace=wrap;html=1;rounded=0;" vertex="1" parent="1">
          <mxGeometry x="1330" y="325" width="150" height="35" as="geometry" />
        </mxCell>
        <mxCell id="Lj5jiR5ULHrEoqdRoK43-59" value="HRnFLEX2000" style="whiteSpace=wrap;html=1;rounded=0;" vertex="1" parent="1">
          <mxGeometry x="1130" y="372.5" width="100" height="35" as="geometry" />
        </mxCell>
        <mxCell id="Lj5jiR5ULHrEoqdRoK43-60" value="HRnFLEX1000" style="whiteSpace=wrap;html=1;rounded=0;" vertex="1" parent="1">
          <mxGeometry x="1240" y="372.5" width="130" height="35" as="geometry" />
        </mxCell>
        <mxCell id="Lj5jiR5ULHrEoqdRoK43-61" value="HRnFLEX Freemium" style="whiteSpace=wrap;html=1;rounded=0;" vertex="1" parent="1">
          <mxGeometry x="1380" y="372.5" width="100" height="35" as="geometry" />
        </mxCell>
        <mxCell id="Lj5jiR5ULHrEoqdRoK43-62" value="HRnFLEX" style="whiteSpace=wrap;html=1;rounded=0;" vertex="1" parent="1">
          <mxGeometry x="1190" y="417" width="100" height="34" as="geometry" />
        </mxCell>
        <mxCell id="Lj5jiR5ULHrEoqdRoK43-64" value="Customized API" style="whiteSpace=wrap;html=1;rounded=0;" vertex="1" parent="1">
          <mxGeometry x="1308.75" y="416" width="100" height="35" as="geometry" />
        </mxCell>
        <mxCell id="Lj5jiR5ULHrEoqdRoK43-65" value="&lt;h1 style=&quot;margin-top: 0px;&quot;&gt;Requirements&lt;/h1&gt;&lt;p&gt;To do:&lt;/p&gt;&lt;p&gt;1. Convert Old STIC renewal pipeline to CS (recent alignment).&lt;/p&gt;&lt;p&gt;2. Notifications : When CEF is Done.&lt;/p&gt;" style="text;html=1;whiteSpace=wrap;overflow=hidden;rounded=0;" vertex="1" parent="1">
          <mxGeometry x="100" y="-750" width="200" height="150" as="geometry" />
        </mxCell>
      </root>
    </mxGraphModel>
  </diagram>
</mxfile>
